<svg width="480" height="480" viewBox="0 0 480 480" fill="none" xmlns="http://www.w3.org/2000/svg">
  <!-- 外轮廓 -->
  <path d="M314.2 335.8C304.333 347.533 292.867 356.733 279.8 363.4C266.733 369.8 253.133 373 239 373C224.6 373 211 369.667 198.2 363C185.4 356.067 174.067 346.733 164.2 335C154.6 323 146.867 308.867 141 292.6C135.4 276.333 132.6 258.6 132.6 239.4C132.6 223.667 134.867 207.933 139.4 192.2C144.2 176.467 151.133 162.2 160.2 149.4C169 136.867 180.2 126.733 193.8 119C207.4 111 223.267 107 241.4 107C259.267 107 274.867 111.133 288.2 119.4C301.533 127.4 312.6 137.667 321.4 150.2C330.2 163 336.733 177.4 341 193.4C345.267 209.133 347.4 224.867 347.4 240.6C347.4 259.8 344.333 277.533 338.2 293.8C332.333 310.067 324.333 324.067 314.2 335.8Z" fill="black"/>
  
  <!-- 内轮廓 -->
  <path d="M176.6 324.2C184.867 334.6 194.467 342.733 205.4 348.6C216.333 354.2 227.667 357 239.4 357C251.133 357 262.467 354.333 273.4 349C284.333 343.4 294.067 335.4 302.6 325C311.133 314.867 317.933 302.6 323 288.2C328.333 273.8 331 258.067 331 241C331 225.267 328.867 210.333 324.6 196.2C320.6 181.8 314.867 169.133 307.4 158.2C299.4 147.8 289.8 139.4 278.6 133C267.667 126.333 255.133 123 241 123C226.867 123 214.2 126.067 203 132.2C191.8 138.333 182.2 146.733 174.2 157.4C166.467 168.333 160.333 180.867 155.8 195C151.533 208.867 149.4 223.667 149.4 239.4C149.4 256.733 151.8 272.6 156.6 287C161.667 301.4 168.333 313.8 176.6 324.2Z" fill="black"/>
</svg>