<svg width="480" height="480" viewBox="0 0 480 480" fill="none" xmlns="http://www.w3.org/2000/svg">
<path d="M323.8 371.6H158.2C175 355.067 191.4 338.933 207.4 323.2C223.4 307.2 237.533 291.6 249.8 276.4C262.067 261.467 271.933 246.933 279.4 232.8C286.867 218.667 290.6 205.333 290.6 192.8C290.6 180 288.6 169.333 284.6 160.8C280.867 152 276.067 144.8 270.2 139.2C264.333 133.867 257.933 130.133 251 128C244.333 125.6 238.067 124.4 232.2 124.4C219.933 124.4 209.933 126.533 202.2 130.8C194.733 135.067 188.867 140.267 184.6 146.4C180.067 152.8 176.867 159.6 175 166.8C173.4 173.733 172.6 180.133 172.6 186C172.6 195.333 173.933 203.6 176.6 210.8C179.267 218 183.267 224.533 188.6 230.4L178.6 240C171.667 233.867 166.2 226.4 162.2 217.6C158.2 208.533 156.2 198 156.2 186C156.2 175.333 157.8 165.333 161 156C164.2 146.667 169.133 138.4 175.8 131.2C181.933 124.267 189.8 118.8 199.4 114.8C209 110.533 219.933 108.4 232.2 108.4C243.4 108.4 253.533 110.533 262.6 114.8C271.667 118.8 279.533 124.4 286.2 131.6C292.867 138.8 297.933 147.2 301.4 156.8C305.133 166.4 307 176.8 307 188C307 202.667 303.667 217.2 297 231.6C290.333 245.733 281.8 259.733 271.4 273.6C261 287.467 249.267 301.2 236.2 314.8C223.4 328.4 210.733 342 198.2 355.6H308.2V313.6H323.8V371.6Z" fill="black"/>
</svg>
