<svg width="480" height="480" viewBox="0 0 480 480" fill="none" xmlns="http://www.w3.org/2000/svg">
<path d="M286.2 346.8C278.467 354.533 269.4 360.667 259 365.2C248.867 369.467 238.067 371.6 226.6 371.6C215.4 371.6 204.867 369.6 195 365.6C185.4 361.333 176.733 355.6 169 348.4L181.4 337.2C187 343.067 193.667 347.6 201.4 350.8C209.133 354 217.4 355.6 226.2 355.6C235.533 355.6 244.333 353.867 252.6 350.4C260.867 346.667 268.067 341.733 274.2 335.6C280.333 329.467 285.267 322.4 289 314.4C292.733 306.133 294.6 297.467 294.6 288.4C294.6 279.067 292.733 270.4 289 262.4C285.267 254.4 280.333 247.333 274.2 241.2C268.067 235.333 260.867 230.667 252.6 227.2C244.333 223.733 235.533 222 226.2 222C216.867 222 208.333 223.6 200.6 226.8C192.867 229.733 186.733 234 182.2 239.6V108.4H297V148.4H281.4V124.4H198.6V211.6C203.133 209.733 207.667 208.4 212.2 207.6C217 206.533 221.8 206 226.6 206C238.067 206 248.867 208.133 259 212.4C269.4 216.4 278.467 222.133 286.2 229.6C293.667 237.067 299.667 245.867 304.2 256C308.733 265.867 311 276.533 311 288C311 299.733 308.733 310.667 304.2 320.8C299.667 330.933 293.667 339.6 286.2 346.8Z" fill="black"/>
</svg>
