<svg width="480" height="480" viewBox="0 0 480 480" fill="none" xmlns="http://www.w3.org/2000/svg">
  <!-- 第一部分：圆环 -->
  <path d="M192.6 332.6C198.467 339 205.4 343.933 213.4 347.4C221.667 350.867 230.467 352.6 239.8 352.6C248.867 352.6 257.533 350.867 265.8 347.4C274.067 343.933 281.267 339 287.4 332.6C293.533 326.733 298.333 319.8 301.8 311.8C305.533 303.533 307.4 294.867 307.4 285.8C307.4 276.467 305.533 267.8 301.8 259.8C298.333 251.533 293.533 244.333 287.4 238.2C281.267 232.333 274.067 227.667 265.8 224.2C257.533 220.733 248.867 219 239.8 219C230.467 219 221.667 220.733 213.4 224.2C205.4 227.667 198.467 232.333 192.6 238.2C186.467 244.333 181.667 251.533 178.2 259.8C174.733 267.8 173 276.467 173 285.8C173 294.867 174.733 303.533 178.2 311.8C181.667 319.8 186.467 326.733 192.6 332.6Z" fill="black"/>

  <!-- 第二部分：上部勾连结构 -->
  <path d="M299.4 344.2C291.667 351.667 282.6 357.667 272.2 362.2C262.067 366.467 251.267 368.6 239.8 368.6C228.6 368.6 217.933 366.467 207.8 362.2C197.667 357.933 188.867 352.2 181.4 345C173.933 337.8 167.933 329.267 163.4 319.4C158.867 309.533 156.467 298.867 156.2 287.4C156.2 268.2 160.333 250.333 168.6 233.8C176.867 217 187.4 201.4 200.2 187C213 172.6 227.267 159.267 243 147C258.733 134.467 274.067 122.6 289 111.4C290.6 113.8 292.333 116.067 294.2 118.2C296.067 120.333 297.8 122.467 299.4 124.6C285.267 133.933 272.733 143.133 261.8 152.2C250.867 161.267 241.267 169.933 233 178.2C224.467 186.733 217.267 194.733 211.4 202.2C205.533 209.4 200.733 216.2 197 222.6C202.067 216.733 208.2 212.067 215.4 208.6C222.867 204.867 231 203 239.8 203C251.267 203 262.067 205.133 272.2 209.4C282.6 213.667 291.667 219.533 299.4 227C306.867 234.733 312.733 243.667 317 253.8C321.533 263.667 323.8 274.333 323.8 285.8C323.8 297.267 321.533 308.067 317 318.2C312.733 328.067 306.867 336.733 299.4 344.2Z" fill="black"/>
</svg>