<svg width="480" height="480" viewBox="0 0 480 480" fill="none" xmlns="http://www.w3.org/2000/svg">
<path d="M192.6 241.6C198.733 247.733 205.933 252.533 214.2 256C222.467 259.467 231.133 261.2 240.2 261.2C249.267 261.2 257.933 259.467 266.2 256C274.467 252.533 281.667 247.733 287.8 241.6C293.667 235.733 298.333 228.8 301.8 220.8C305.267 212.533 307 203.733 307 194.4C307 185.067 305.267 176.4 301.8 168.4C298.333 160.4 293.667 153.333 287.8 147.2C281.667 141.067 274.467 136.267 266.2 132.8C257.933 129.333 249.267 127.6 240.2 127.6C231.133 127.6 222.467 129.333 214.2 132.8C205.933 136.267 198.733 141.067 192.6 147.2C186.467 153.333 181.533 160.4 177.8 168.4C174.333 176.4 172.6 185.067 172.6 194.4C172.6 203.733 174.333 212.533 177.8 220.8C181.533 228.8 186.467 235.733 192.6 241.6ZM279.4 294C266.333 308.4 251.933 321.733 236.2 334C220.733 346.267 205.667 357.733 191 368.4C189.4 366.267 187.667 364.133 185.8 362C183.933 359.867 182.2 357.6 180.6 355.2C196.333 345.067 210.2 335.067 222.2 325.2C234.2 315.067 244.6 305.467 253.4 296.4C260.6 288.933 266.6 282 271.4 275.6C276.467 268.933 280.467 262.8 283.4 257.2C278.067 263.333 271.667 268.267 264.2 272C257 275.467 249 277.2 240.2 277.2C228.733 277.2 217.8 275.067 207.4 270.8C197.267 266.533 188.467 260.533 181 252.8C173.267 245.333 167.133 236.667 162.6 226.8C158.333 216.667 156.2 205.867 156.2 194.4C156.2 182.933 158.333 172.267 162.6 162.4C167.133 152.267 173.267 143.333 181 135.6C188.467 128.4 197.267 122.667 207.4 118.4C217.8 113.867 228.733 111.6 240.2 111.6C251.667 111.6 262.467 113.867 272.6 118.4C282.733 122.667 291.667 128.533 299.4 136C306.867 143.467 312.733 152.267 317 162.4C321.533 172.267 323.8 182.933 323.8 194.4C323.8 213.333 319.533 231.067 311 247.6C302.733 264.133 292.2 279.6 279.4 294Z" fill="black"/>
</svg>
