<svg width="960" height="960" viewBox="0 0 960 960" fill="none" xmlns="http://www.w3.org/2000/svg">

<path id="Z1" d="M320.382 405.662V166.263C310.482 181.563 297.432 193.713 281.232 202.712C265.332 211.712 247.932 216.212 229.032 216.212V200.013C245.532 200.013 260.682 195.962 274.482 187.862C288.582 179.462 299.682 168.362 307.782 154.562C316.182 140.462 320.382 125.163 320.382 108.662H336.582V405.662H431.082V422.313H225.882V405.662H320.382Z" fill="black"/>
<path d="M669.474 429.288C652.074 429.288 635.874 424.938 620.874 416.238C606.174 407.538 594.474 395.838 585.774 381.138C577.074 366.138 572.724 349.938 572.724 332.538C572.724 312.738 578.274 294.738 589.374 278.538C600.474 262.338 615.024 250.638 633.024 243.438C621.324 236.838 611.874 227.688 604.674 215.988C597.474 203.988 593.874 191.088 593.874 177.288C593.874 163.488 597.174 150.888 603.774 139.488C610.674 127.788 619.974 118.637 631.674 112.037C643.374 105.137 655.974 101.687 669.474 101.687C683.274 101.687 695.874 105.137 707.274 112.037C718.974 118.637 728.124 127.788 734.724 139.488C741.624 150.888 745.074 163.488 745.074 177.288C745.074 191.388 741.474 204.288 734.274 215.988C727.374 227.688 717.924 236.838 705.924 243.438C723.624 250.638 738.024 262.338 749.124 278.538C760.524 294.738 766.224 312.738 766.224 332.538C766.224 349.938 761.874 366.138 753.174 381.138C744.474 395.838 732.624 407.538 717.624 416.238C702.924 424.938 686.874 429.288 669.474 429.288ZM610.524 177.288C610.524 187.788 613.074 197.687 618.174 206.988C623.574 215.988 630.774 223.188 639.774 228.588C649.074 233.688 658.974 236.238 669.474 236.238C679.974 236.238 689.724 233.688 698.724 228.588C708.024 223.188 715.224 215.988 720.324 206.988C725.724 197.687 728.424 187.788 728.424 177.288C728.424 166.788 725.724 157.038 720.324 148.038C715.224 138.738 708.024 131.538 698.724 126.437C689.724 121.037 679.974 118.337 669.474 118.337C658.974 118.337 649.074 121.037 639.774 126.437C630.774 131.538 623.574 138.738 618.174 148.038C613.074 157.038 610.524 166.788 610.524 177.288ZM669.474 412.638C683.874 412.638 697.224 409.038 709.524 401.838C721.824 394.638 731.574 384.888 738.774 372.588C745.974 360.288 749.574 346.938 749.574 332.538C749.574 318.138 745.974 304.788 738.774 292.488C731.574 280.188 721.824 270.438 709.524 263.238C697.224 256.038 683.874 252.438 669.474 252.438C655.074 252.438 641.724 256.038 629.424 263.238C617.124 270.438 607.374 280.188 600.174 292.488C592.974 304.788 589.374 318.138 589.374 332.538C589.374 346.938 592.974 360.288 600.174 372.588C607.374 384.888 617.124 394.638 629.424 401.838C641.724 409.038 655.074 412.638 669.474 412.638Z" fill="black"/>
<path d="M409.452 841.663V858.312H215.052V841.663L282.552 767.412L343.752 700.812L349.152 694.962C361.152 682.362 370.452 670.962 377.052 660.762C383.652 650.262 386.952 639.012 386.952 627.012C386.952 613.512 383.502 601.212 376.602 590.112C370.002 579.012 360.702 570.312 348.702 564.012C337.002 557.712 323.952 554.562 309.552 554.562C295.752 554.562 282.852 558.012 270.852 564.912C259.152 571.812 249.852 581.262 242.952 593.262C236.052 604.962 232.602 617.862 232.602 631.962H215.952C215.952 614.862 220.152 599.262 228.552 585.162C236.952 570.762 248.202 559.362 262.302 550.962C276.702 542.562 292.452 538.362 309.552 538.362C327.252 538.362 343.152 542.262 357.252 550.062C371.652 557.562 382.902 568.062 391.002 581.562C399.402 595.062 403.602 610.212 403.602 627.012C403.602 642.012 399.852 655.362 392.352 667.062C384.852 678.763 374.502 691.812 361.302 706.212L355.902 712.062L237.552 841.663H409.452Z" fill="black"/>
<path d="M609.174 855.162L754.524 558.162H565.974V541.512H772.974V558.162L627.624 855.162H609.174Z" fill="black"/>
</svg>
