<svg width="480" height="480" viewBox="0 0 480 480" fill="none" xmlns="http://www.w3.org/2000/svg">
<path d="M287.8 346.8C280.067 354.533 271.133 360.667 261 365.2C250.867 369.467 240.067 371.6 228.6 371.6C216.333 371.6 204.867 369.2 194.2 364.4C183.8 359.333 174.867 352.667 167.4 344.4L179.4 332.4C185 339.333 191.933 344.933 200.2 349.2C208.733 353.467 217.933 355.6 227.8 355.6C237.133 355.6 245.933 353.867 254.2 350.4C262.467 346.667 269.8 341.733 276.2 335.6C282.067 329.467 286.867 322.4 290.6 314.4C294.333 306.133 296.2 297.467 296.2 288.4C296.2 279.067 294.333 270.4 290.6 262.4C286.867 254.133 282.067 246.933 276.2 240.8C269.8 234.933 262.467 230.267 254.2 226.8C245.933 223.067 237.133 221.2 227.8 221.2C223.267 221.2 218.867 221.867 214.6 223.2C210.6 224.533 206.733 226.667 203 229.6L276.2 124.8H192.2V148.4H176.6V108.4H305.8L235 207.2C245.667 208 255.667 210.667 265 215.2C274.6 219.467 282.867 225.2 289.8 232.4C296.733 239.333 302.2 247.6 306.2 257.2C310.467 266.8 312.6 277.2 312.6 288.4C312.6 299.867 310.333 310.667 305.8 320.8C301.533 330.933 295.533 339.6 287.8 346.8Z" fill="black"/>
</svg>
