<svg width="480" height="480" viewBox="0 0 480 480" fill="none" xmlns="http://www.w3.org/2000/svg">
<path d="M205 187.6C207.933 192.133 211.667 195.867 216.2 198.8C221 201.733 226.333 203.733 232.2 204.8C237.533 205.6 242.733 205.6 247.8 204.8C252.867 203.733 257.533 201.867 261.8 199.2C266.333 196.8 269.933 193.733 272.6 190C275.533 186 277.533 181.467 278.6 176.4C279.933 171.067 280.067 165.733 279 160.4C278.2 154.8 276.467 149.733 273.8 145.2C270.867 140.4 267.133 136.4 262.6 133.2C258.067 129.733 253.133 127.467 247.8 126.4C242.2 125.333 236.733 125.467 231.4 126.8C226.067 127.867 221.133 129.867 216.6 132.8C212.067 135.733 208.2 139.467 205 144C202.067 148.533 200.067 153.467 199 158.8C197.933 164.133 197.933 169.333 199 174.4C200.067 179.2 202.067 183.6 205 187.6ZM192.2 337.2C198.067 343.333 205 348.267 213 352C221.267 355.467 229.933 357.2 239 357.2C248.333 357.2 257.133 355.467 265.4 352C273.667 348.267 280.867 343.333 287 337.2C293.133 331.067 298.067 324 301.8 316C305.533 307.733 307.4 299.067 307.4 290C307.4 280.667 305.533 272.133 301.8 264.4C298.333 256.4 293.533 249.333 287.4 243.2C281.267 237.333 274.067 232.667 265.8 229.2C257.8 225.467 249.133 223.6 239.8 223.6C230.467 223.6 221.667 225.333 213.4 228.8C205.4 232.267 198.467 236.933 192.6 242.8C186.467 248.933 181.667 256 178.2 264C175 272 173.4 280.667 173.4 290C173.4 299.067 175 307.733 178.2 316C181.667 324 186.333 331.067 192.2 337.2ZM299 348.4C291.267 356.133 282.2 362.267 271.8 366.8C261.667 371.067 250.867 373.2 239.4 373.2C227.933 373.2 217.133 371.067 207 366.8C197.133 362.267 188.467 356.133 181 348.4C173.267 341.2 167.133 332.533 162.6 322.4C158.333 312.267 156.2 301.467 156.2 290C156.2 280.4 157.667 271.467 160.6 263.2C163.8 254.667 167.933 246.933 173 240C177.533 234.133 182.867 228.933 189 224.4C195.133 219.867 201.8 216.4 209 214C200.2 209.733 193 203.333 187.4 194.8C181.8 186.267 179 176.667 179 166C179 157.733 180.6 150 183.8 142.8C187 135.6 191.4 129.333 197 124C202.067 118.667 208.2 114.533 215.4 111.6C222.6 108.4 230.333 106.8 238.6 106.8C247.133 106.8 255 108.4 262.2 111.6C269.4 114.8 275.8 119.067 281.4 124.4C286.733 130 291 136.4 294.2 143.6C297.4 150.8 299 158.533 299 166.8C299 177.467 296.2 186.933 290.6 195.2C285.267 203.467 278.2 209.733 269.4 214C276.6 216.4 283.267 219.733 289.4 224C295.8 228.267 301.267 233.333 305.8 239.2C311.4 246.133 315.8 253.867 319 262.4C322.2 270.933 323.8 280.133 323.8 290C323.8 301.467 321.533 312.267 317 322.4C312.467 332.533 306.467 341.2 299 348.4Z" fill="black"/>
</svg>
