<svg width="960" height="960" viewBox="0 0 960 960" fill="none" xmlns="http://www.w3.org/2000/svg">

<path d="M287.771 576.53V619.898H214.091V576.53H229.946V383.47H213.159L222.485 340.102H274.248V576.53H287.771Z" fill="black"/>
<path d="M431.491 455.751V499.119H405.377L383.459 619.898H341.024L362.008 499.119H325.635V455.751H369.469L382.06 383.47H311.179V340.102H383.926C399.159 340.102 410.351 345.542 417.501 356.423C424.652 367.304 426.517 381.916 423.097 400.258L413.304 455.751H431.491Z" fill="black"/>
<path d="M445.412 402.123H488.78V445.492H445.412V402.123ZM445.412 514.508H488.78V557.877H445.412V514.508Z" fill="black"/>
<path d="M613.668 499.119H613.202V576.063C613.202 589.121 609.161 599.691 601.078 607.774C592.995 615.546 582.424 619.432 569.367 619.432H507.346V576.063H566.569C568.124 576.063 568.901 575.286 568.901 573.732V499.119H520.869V455.751H569.367V385.802C569.367 384.247 568.59 383.47 567.036 383.47H507.812V340.102H569.834C582.891 340.102 593.461 344.143 601.544 352.226C609.627 359.998 613.668 370.413 613.668 383.47V499.119Z" fill="black"/>
<path d="M705.338 619.432H675.96C662.902 619.432 652.332 615.546 644.249 607.774C636.166 599.691 632.125 589.121 632.125 576.063V479.534C632.125 477.668 632.28 475.958 632.591 474.404V383.47C632.591 370.413 636.633 359.998 644.716 352.226C652.799 344.143 663.369 340.102 676.426 340.102H703.007C716.375 340.102 726.945 344.143 734.717 352.226C742.8 359.998 746.841 370.413 746.841 383.47V427.771L702.54 423.108V385.802C702.54 384.247 701.763 383.47 700.209 383.47H679.224C677.669 383.47 676.892 384.247 676.892 385.802V436.165H703.007C716.375 436.165 726.945 440.207 734.717 448.29C742.8 456.062 746.841 466.476 746.841 479.534V576.063C746.841 589.121 742.955 599.691 735.183 607.774C727.411 615.546 717.463 619.432 705.338 619.432ZM702.54 481.865C702.54 480.311 701.763 479.534 700.209 479.534H678.758C677.514 479.534 676.737 479.845 676.426 480.466V573.732C676.426 575.286 677.203 576.063 678.758 576.063H700.209C701.763 576.063 702.54 575.286 702.54 573.732V481.865Z" fill="black"/>
</svg>
